<svg width="29" height="29" viewBox="0 0 29 29" fill="none" xmlns="http://www.w3.org/2000/svg">
<path fill-rule="evenodd" clip-rule="evenodd" d="M24.8071 5.47377C24.9672 5.30197 25.0544 5.07475 25.0502 4.83997C25.0461 4.60519 24.951 4.38118 24.7849 4.21514C24.6189 4.0491 24.3949 3.95399 24.1601 3.94985C23.9253 3.94571 23.6981 4.03285 23.5263 4.19293L4.19298 23.5263C4.10394 23.6092 4.03253 23.7093 3.983 23.8205C3.93346 23.9316 3.90683 24.0516 3.90468 24.1733C3.90254 24.295 3.92492 24.4159 3.9705 24.5287C4.01608 24.6415 4.08392 24.7441 4.16998 24.8301C4.25603 24.9162 4.35854 24.984 4.47138 25.0296C4.58423 25.0752 4.7051 25.0975 4.82678 25.0954C4.94846 25.0933 5.06846 25.0666 5.17963 25.0171C5.2908 24.9676 5.39085 24.8961 5.47381 24.8071L9.1411 21.1398C10.7337 21.8745 12.5571 22.3542 14.5001 22.3542C17.6635 22.3542 20.5079 21.0842 22.5572 19.511C23.5843 18.7231 24.4265 17.8483 25.0162 16.9976C25.5962 16.1615 25.9792 15.2842 25.9792 14.5C25.9792 13.7158 25.5962 12.8386 25.0162 12.0036C24.4265 11.1517 23.5843 10.2769 22.5572 9.49027C22.231 9.23893 21.883 8.99485 21.5181 8.76406L24.8071 5.47377ZM18.2821 12.0012L16.953 13.3279C17.1953 13.8353 17.2743 14.4052 17.1793 14.9594C17.0842 15.5135 16.8197 16.0245 16.4221 16.4221C16.0246 16.8196 15.5135 17.0841 14.9594 17.1792C14.4053 17.2743 13.8353 17.1952 13.328 16.9529L11.9988 18.2821C12.8702 18.859 13.9142 19.1171 14.954 19.0124C15.9938 18.9078 16.9655 18.447 17.7044 17.708C18.4434 16.9691 18.9042 15.9974 19.0089 14.9576C19.1135 13.9178 18.8555 12.8738 18.2785 12.0024L18.2821 12.0012Z" fill="#8E8D8D"/>
<path d="M15.3095 10.0412C15.3592 10.0505 15.4104 10.0477 15.4588 10.033C15.5072 10.0183 15.5513 9.99207 15.5874 9.95665L17.9437 7.6004C17.9803 7.56437 18.0068 7.51936 18.0206 7.46987C18.0344 7.42038 18.035 7.36814 18.0223 7.31836C18.0095 7.26859 17.984 7.22302 17.9481 7.18621C17.9123 7.1494 17.8674 7.12264 17.818 7.1086C16.7382 6.80424 15.6218 6.64855 14.4999 6.64581C11.3365 6.64581 8.49208 7.91577 6.44275 9.48902C5.41567 10.2769 4.57346 11.1517 3.98259 12.0024C3.40259 12.8385 3.02075 13.7158 3.02075 14.5C3.02075 15.2842 3.40379 16.1614 3.98259 16.9964C4.55758 17.8034 5.23693 18.5307 6.00292 19.1593C6.06024 19.2067 6.13323 19.2309 6.2075 19.2271C6.28176 19.2233 6.35191 19.1918 6.40409 19.1388L9.95659 15.5863C9.99201 15.5502 10.0182 15.5061 10.0329 15.4577C10.0477 15.4093 10.0505 15.3581 10.0412 15.3084C9.91023 14.5877 9.95593 13.8461 10.1744 13.147C10.3928 12.4478 10.7774 11.8121 11.2953 11.2942C11.8133 10.7763 12.449 10.3916 13.1481 10.1732C13.8472 9.95478 14.5889 9.90908 15.3095 10.04V10.0412Z" fill="#8E8D8D"/>
</svg>
