<svg width="40" height="40" viewBox="0 0 40 40" fill="none" xmlns="http://www.w3.org/2000/svg">
<path d="M13.6196 20.0001L3.59961 26.5241V13.4761L13.6196 20.0001ZM26.3796 20.0001L36.3996 26.5241V13.4761L26.3796 20.0001ZM24.9156 20.9561L20.4356 23.8721C20.3036 23.9561 20.1516 24.0001 19.9996 24.0001C19.8476 24.0001 19.6956 23.9561 19.5636 23.8721L15.0836 20.9561L4.26361 28.0001L3.63561 28.4081C3.83161 29.5361 4.81561 30.4001 5.99961 30.4001H33.9996C35.1836 30.4001 36.1676 29.5401 36.3636 28.4081L35.7316 28.0001L24.9156 20.9561ZM19.9996 22.2441L35.7316 12.0001L36.3636 11.5921C36.1676 10.4601 35.1836 9.6001 33.9996 9.6001H5.99961C4.81561 9.6001 3.83161 10.4641 3.63561 11.5921L4.26361 12.0001L19.9996 22.2441Z" fill="white"/>
</svg>
