<svg width="46" height="46" viewBox="0 0 46 46" fill="none" xmlns="http://www.w3.org/2000/svg">
<path d="M40.25 2.875H5.75C4.9875 2.875 4.25624 3.1779 3.71707 3.71707C3.1779 4.25624 2.875 4.9875 2.875 5.75V40.25C2.875 41.0125 3.1779 41.7438 3.71707 42.2829C4.25624 42.8221 4.9875 43.125 5.75 43.125H22.0417V27.7917H18.2083V22.0417H22.0417V18.2083C22.0417 16.175 22.8494 14.225 24.2872 12.7872C25.725 11.3494 27.675 10.5417 29.7083 10.5417H35.4583V16.2917H29.7083C29.2 16.2917 28.7125 16.4936 28.353 16.853C27.9936 17.2125 27.7917 17.7 27.7917 18.2083V22.0417H35.4583L34.5 27.7917H27.7917V43.125H40.25C41.0125 43.125 41.7438 42.8221 42.2829 42.2829C42.8221 41.7438 43.125 41.0125 43.125 40.25V5.75C43.125 4.9875 42.8221 4.25624 42.2829 3.71707C41.7438 3.1779 41.0125 2.875 40.25 2.875Z" stroke="white" stroke-linecap="round" stroke-linejoin="round"/>
</svg>
