<svg width="23" height="22" viewBox="0 0 23 22" fill="none" xmlns="http://www.w3.org/2000/svg">
<path d="M23 21.9986V13.4884C23 8.92896 20.5681 6.80731 17.3241 6.80731C14.7065 6.80731 13.5342 8.24809 12.8816 9.259V7.15537H7.9512C8.01633 8.54901 7.9512 21.9986 7.9512 21.9986H12.8816V13.7089C12.8816 13.2666 12.9134 12.8228 13.0437 12.5066C13.3998 11.6205 14.2104 10.7026 15.5726 10.7026C17.3574 10.7026 18.071 12.0629 18.071 14.0584V22L23 21.9986ZM2.75617 5.1294C4.47445 5.1294 5.54561 3.98815 5.54561 2.56401C5.51374 1.10797 4.47446 0 2.78805 0C1.10164 0 0 1.10797 0 2.56401C0 3.98954 1.06977 5.1294 2.72569 5.1294H2.75617ZM5.22135 21.9986V7.15537H0.292385V21.9986H5.22135Z" fill="white"/>
</svg>
