<svg width="42" height="42" viewBox="0 0 42 42" fill="none" xmlns="http://www.w3.org/2000/svg">
<path d="M33.0479 0H8.94434C4.01445 0 0 4.01445 0 8.94434V32.46C0 37.3898 4.01445 41.4043 8.94434 41.4043H33.0479C37.9777 41.4043 41.9922 37.3898 41.9922 32.46V8.94434C41.9922 4.01445 37.9777 0 33.0479 0ZM40.3125 32.46C40.3125 36.466 37.0539 39.7246 33.0479 39.7246H8.94434C4.93828 39.7246 1.67969 36.466 1.67969 32.46V8.94434C1.67969 4.93828 4.93828 1.67969 8.94434 1.67969H33.0479C37.0539 1.67969 40.3125 4.93828 40.3125 8.94434V32.46Z" fill="white"/>
</svg>
