<svg width="27" height="26" viewBox="0 0 27 26" fill="none" xmlns="http://www.w3.org/2000/svg">
<path d="M10.9961 4.37217C5.30195 4.37217 0.666016 9.00811 0.666016 14.7022C0.666016 20.3964 5.30195 25.0323 10.9961 25.0323C16.6902 25.0323 21.3262 20.3964 21.3262 14.7022C21.3262 9.00811 16.6902 4.37217 10.9961 4.37217ZM10.9961 23.3526C6.22578 23.3526 2.3457 19.4726 2.3457 14.7022C2.3457 9.93193 6.22578 6.05186 10.9961 6.05186C15.7664 6.05186 19.6465 9.93193 19.6465 14.7022C19.6465 19.4726 15.7664 23.3526 10.9961 23.3526ZM23.2326 0.0805664C21.6537 0.0805664 20.3688 1.36553 20.3688 2.94443C20.3688 4.52334 21.6537 5.8083 23.2326 5.8083C24.8115 5.8083 26.0965 4.52334 26.0965 2.94443C26.0965 1.36553 24.8115 0.0805664 23.2326 0.0805664ZM23.2326 4.12861C22.5775 4.12861 22.0484 3.59951 22.0484 2.94443C22.0484 2.28936 22.5775 1.76025 23.2326 1.76025C23.8877 1.76025 24.4168 2.28936 24.4168 2.94443C24.4168 3.59951 23.8877 4.12861 23.2326 4.12861Z" fill="white"/>
</svg>
